<mxfile host="app.diagrams.net" modified="2023-12-05T01:28:22.661Z" agent="Mozilla/5.0 (Windows NT 10.0; Win64; x64) AppleWebKit/537.36 (KHTML, like Gecko) Chrome/119.0.0.0 Safari/537.36" version="22.1.5" etag="MgqTKbm-pnRs6QF4zxHE" type="github">
  <diagram name="Trang-1" id="EAM-y8ROYqYOeKxey6t0">
    <mxGraphModel>
      <root>
        <mxCell id="0" />
        <mxCell id="1" parent="0" />
      </root>
    </mxGraphModel>
  </diagram>
</mxfile>
